# xmcd
#
# Track frame offsets: 
#        150
#        17601
#        37206
#        52763
#        68669
#        89249
#        103860
#        117083
#        133953
#        149752
#        166535
#        181630
#        199322
#        217813
#        233683
#
# Disc length: 3341 seconds
#
# Revision: 5
# Processed by: cddbd v1.5.2PL0 Copyright (c) Steve Scherf et al.
# Submitted via: ExactAudioCopy v0.95b3
#
DISCID=d20d0b0f
DTITLE=Sergey Trofimov - Nostal'giya
DYEAR=2005
DGENRE=Blues
TTITLE0=20 let
TTITLE1=2.45
TTITLE2=Ne zrya govorila tebe mama
TTITLE3=Plyusheviy mishka
TTITLE4=Nostal'giya
TTITLE5=Sen-Zhenev'ev
TTITLE6=Leta
TTITLE7=Eh, raz
TTITLE8=Pokolenie pepsi
TTITLE9=Rodina
TTITLE10=Navashino
TTITLE11=Za druzey
TTITLE12=Krasnoe, chernoe, nol'
TTITLE13=Nikudyshniy angel
TTITLE14=Vesenniy blyuz
EXTD=by pankrusheff
EXTT0=
EXTT1=
EXTT2=
EXTT3=
EXTT4=
EXTT5=
EXTT6=
EXTT7=
EXTT8=
EXTT9=
EXTT10=
EXTT11=
EXTT12=
EXTT13=
EXTT14=
PLAYORDER=
